<svg xmlns="http://www.w3.org/2000/svg" viewBox="0 0 498 297.39">
  <defs>
    <style>
      .cls-1 {
        font-size: 72.53px;
        font-family: AozoraMinchoRegular, Aozora Mincho;
        letter-spacing: 0.08em;
      }

      .cls-2 {
        fill: #fff;
      }
    </style>
  </defs>
  <g id="レイヤー_2" data-name="レイヤー 2">
    <g id="レイヤー_1-2" data-name="レイヤー 1">
      <path d="M12,214.53h9.75l2.87-3.66c3,2.44,4.53,4,4.53,4.79a1.48,1.48,0,0,1-.7,1l-1.74,1.13v54.5c0,4-2.52,6.09-7.48,6a3.64,3.64,0,0,0-2.53-3.39,32.33,32.33,0,0,0-5.92-1.39v-2a89,89,0,0,0,9.14.61c1.66,0,2.44-.78,2.44-2.26V250.56H10.88c-.43,11.84-3.48,21.33-9.23,28.38L0,277.72c4.35-7.66,6.44-18.8,6.44-33.16V212.18c.87.34,2.44.95,4.7,2Zm10.36,34.12V232.89H11.06v11.76c0,1.13,0,2.52-.09,4ZM11.06,216.53v14.36H22.37V216.53Zm29.68.87v25.24c0,16.37-3.74,28.47-11.32,36.3l-1.74-1.3c5.75-7.58,8.53-19.24,8.53-35V212.87c1.22.44,3,1.31,5.4,2.53H52.23L55,211.83c3.14,2.61,4.7,4.18,4.7,5a1.51,1.51,0,0,1-.78,1.13l-1.65,1.22v51.45c0,1,.26,1.74.69,1.91a5.94,5.94,0,0,0,3,.44c2.53,0,4.18-.79,4.53-2.44A101.7,101.7,0,0,0,67,255.61l2.09,1v3.66a87.16,87.16,0,0,0,.34,9.57c.27,1.66.79,2.44,1.75,2.35.26,0,.43-.09.69-.09,0,2-.69,3.31-1.83,3.92s-3.74,1-7.74,1c-4.44,0-7.32-.52-8.36-1.39-.78-.7-1.22-2.27-1.22-4.7V217.4Z"/>
      <path d="M103.06,236.72v1.92q0,13.85-4.18,21.94c-2,3.91-4.18,5.83-6.44,5.83-1.83,0-2.79-.87-2.79-2.61,0-1.05.78-2.27,2.44-3.75,4.7-4.26,7.66-12.18,9-23.85ZM113,211.31a63.52,63.52,0,0,1,15.76,8.09c3.65,2.7,5.48,5.22,5.48,7.66a2.49,2.49,0,0,1-2.79,2.79c-.78,0-1.91-.79-3.13-2.61-3.22-5.05-8.62-9.93-16.19-14.37Zm29.94,44.48v5.31q0,6,.79,7.83a2.2,2.2,0,0,0,2.26,1.31c-.09,2.43-1.13,4-3.31,4.61-1.65.52-6.26.7-13.84.7-8.7,0-13.66-.44-14.88-1.4s-1.66-2.43-1.66-4.78v-41.7c5.4.18,8.19.87,8.19,2.18,0,.69-1.14,1.39-3.4,2.09v36.12c0,1.57.35,2.53,1.22,2.79s3.92.61,9.23.61c5.48,0,8.61-.27,9.48-.61,1.75-.87,3.05-6.18,3.84-15.85Zm-1.13-21.42a68.74,68.74,0,0,1,13.93,15c2.52,3.74,3.92,6.79,3.92,9.22s-1,3.66-3,3.66c-1.31,0-2.35-1.31-3.05-3.74-2.09-7.49-6.44-15.06-13-22.64Z"/>
      <path d="M193.67,231.94v26.89c3.74-1.22,7.48-2.35,11.31-3.65l.18,2a225,225,0,0,1-22.29,9.66c-.26,1.74-.7,2.61-1.39,2.61-1.13,0-2.35-2.26-3.4-6.79,5.14-1,8.88-1.91,11.23-2.52v-28.2H179l-.61-1.92h10.88V209.74c5.14.26,7.66.87,7.66,1.91,0,.61-1.13,1.4-3.3,2.27V230h3.74l3.48-5.13c1.83,2.08,3.31,3.83,4.53,5.48l-.87,1.57Zm18.45,4v32.82a2.74,2.74,0,0,0,1.39,2.7c1.13.43,5.57.69,13.41.69,9.66,0,14.79-.61,15.66-2,1.14-1.65,2.09-5.74,2.7-12.19l2,.79c0,3.48-.09,5.57-.09,6.09,0,4.27,1,6.35,2.87,6.27a4.39,4.39,0,0,1-3.48,4.35c-2.44.61-8.79,1-19.15,1s-16.28-.52-17.76-1.57c-1.39-.87-2.09-3-2.09-6V237.33l-8.18,2.61L198.1,238l9.49-3.05v-20.8c5,.09,7.58.61,7.58,1.74,0,.61-1,1.39-3,2.26v15.41l10.71-3.39V208.87c5,.09,7.57.69,7.57,1.83,0,.61-1.13,1.39-3.22,2.26V228.8l10.53-3.39,2.79-4.09c3.39,2.35,5,3.83,5,4.61a1.09,1.09,0,0,1-.6.87L243,228.28v24.2c0,4.18-2.44,6.27-7.22,6.18a3.52,3.52,0,0,0-1.83-3.31,18.84,18.84,0,0,0-5-1.22v-2a47.62,47.62,0,0,0,6.7.52c1.91,0,2.87-.78,2.87-2.43V227.58l-11.4,3.57v31.77h-4.35V232.55Z"/>
      <path d="M448.21,214.79l2.79-3.57c2.95,2.44,4.52,3.92,4.52,4.61a1.31,1.31,0,0,1-.61,1l-1.74,1.31V272c0,4.26-2.52,6.35-7.57,6.35a3.4,3.4,0,0,0-2.18-3.3,19.6,19.6,0,0,0-5.57-1.22v-2.09a59.61,59.61,0,0,0,8.27.61c1.74,0,2.7-.79,2.7-2.27v-19.5H436.89c-.43,12-3.48,21.5-9.22,28.56l-1.57-1.22q6.52-11.62,6.53-31.34V212.09a43,43,0,0,1,5.31,2.7Zm-11.23,2v14.1h11.84v-14.1Zm11.84,31.86V232.89H437v15.76Zm20.54-5h-4.09V279.2h-4.53V212.26a56.67,56.67,0,0,1,5.66,2.62h19.07l2.61-3.4c3,2.26,4.52,3.74,4.52,4.53a1.22,1.22,0,0,1-.61,1l-1.56,1.13c-.09,8.53-.87,13.67-2.27,15.58s-3.65,3-6.61,3c0-1.39-.78-2.35-2.35-3a31.87,31.87,0,0,0-6.88-1.66v-2a61.6,61.6,0,0,0,8.88.78,3.86,3.86,0,0,0,4.18-3,57.32,57.32,0,0,0,.7-11H465.27v25h21.41l2.53-3c3.31,2.43,4.87,4.09,4.87,5a.84.84,0,0,1-.61.87l-1.91,1a78.19,78.19,0,0,1-8,18A59.14,59.14,0,0,0,498,274a13.34,13.34,0,0,0-3.83,4.27,59.2,59.2,0,0,1-12.88-11,50.71,50.71,0,0,1-13.93,12.62L466,278.33a55.29,55.29,0,0,0,12.62-14.53C474.76,258.49,471.71,251.78,469.36,243.69Zm17.67,0H471.8a54.9,54.9,0,0,0,8.88,16.71A67.49,67.49,0,0,0,487,243.69Z"/>
      <text class="cls-1" transform="translate(269.06 277.17)">いい</text>
      <g>
        <rect x="162.76" width="172.47" height="172.47" rx="15.89"/>
        <path class="cls-2" d="M215.42,43.62H229.1l4-5.13c4.15,3.42,6.35,5.62,6.35,6.72a2.07,2.07,0,0,1-1,1.46l-2.44,1.59V124.7c0,5.61-3.54,8.54-10.5,8.42a5.12,5.12,0,0,0-3.54-4.76,46.71,46.71,0,0,0-8.31-2V123.6a124.89,124.89,0,0,0,12.82.85c2.32,0,3.42-1.1,3.42-3.17V94.17H213.84c-.62,16.61-4.89,29.92-13,39.81l-2.32-1.71c6.11-10.75,9-26.38,9-46.52V40.33c1.22.48,3.42,1.34,6.59,2.8ZM230,91.49V69.39H214.08V85.87c0,1.59,0,3.54-.12,5.62ZM214.08,46.43V66.58H230V46.43Zm41.64,1.22V83.06c0,23-5.25,39.93-15.88,50.92l-2.44-1.83c8.06-10.63,12-27,12-49.09V41.3a82.82,82.82,0,0,1,7.57,3.54h14.89l3.91-5c4.4,3.66,6.59,5.86,6.59,7a2.11,2.11,0,0,1-1.09,1.58l-2.32,1.71v72.17c0,1.46.36,2.44,1,2.68.73.49,2.08.61,4.15.61,3.54,0,5.86-1.1,6.35-3.42q1.47-6.76,2.2-20.88l2.93,1.35v5.12a118.07,118.07,0,0,0,.49,13.44c.37,2.32,1.1,3.42,2.44,3.29.37,0,.61-.12,1-.12,0,2.81-1,4.64-2.57,5.49s-5.25,1.35-10.86,1.35c-6.23,0-10.26-.73-11.72-1.95-1.1-1-1.71-3.18-1.71-6.6v-75Z"/>
      </g>
    </g>
  </g>
</svg>
