<svg xmlns="http://www.w3.org/2000/svg" width="127.919" height="18.5" viewBox="0 0 127.919 18.5">
  <g id="ordermade" transform="translate(0.381)">
    <path id="パス_30" data-name="パス 30" d="M-54.82-6.094a10.341,10.341,0,0,0,.316,2.93A4.681,4.681,0,0,0-53.5-1.418,4.624,4.624,0,0,0-52.09-.387,4.772,4.772,0,0,0-49.8.141a4.879,4.879,0,0,0,2.332-.527,2.666,2.666,0,0,0,.785-.5,3.8,3.8,0,0,0,.574-.527,4.172,4.172,0,0,0,1.031-1.746,11.13,11.13,0,0,0,.293-2.93,11.412,11.412,0,0,0-.293-2.953,3.829,3.829,0,0,0-1.031-1.7,4.364,4.364,0,0,0-1.359-1.09,5.311,5.311,0,0,0-2.332-.48,5.192,5.192,0,0,0-2.285.48,4.6,4.6,0,0,0-1.406,1.09,4.264,4.264,0,0,0-1.008,1.7A10.6,10.6,0,0,0-54.82-6.094Zm7.582.023a10.249,10.249,0,0,1-.117,1.828,2.414,2.414,0,0,1-.48,1.055,2.3,2.3,0,0,1-.8.621,2.539,2.539,0,0,1-1.172.258,2.579,2.579,0,0,1-1.148-.258,2.98,2.98,0,0,1-.82-.621,3.067,3.067,0,0,1-.457-1.055,8.729,8.729,0,0,1-.141-1.852,8.986,8.986,0,0,1,.141-1.875,2.832,2.832,0,0,1,.457-1.008,2.173,2.173,0,0,1,.82-.645A2.682,2.682,0,0,1-49.8-9.867a2.64,2.64,0,0,1,1.172.246,1.792,1.792,0,0,1,.8.645,2.24,2.24,0,0,1,.48,1.008A10.931,10.931,0,0,1-47.238-6.07ZM-42.223,0h2.449V-7.324A2.384,2.384,0,0,1-39-9.258a2.3,2.3,0,0,1,1.605-.609,2.565,2.565,0,0,1,1.605.609l1.781-2.121a3.956,3.956,0,0,0-2.555-.937,3.927,3.927,0,0,0-3.164,1.441h-.047v-1.289h-2.449Zm16.184-1.277V0h2.449V-17.086h-2.449v6.211a7.024,7.024,0,0,0-1.418-1.055,3.919,3.919,0,0,0-1.734-.387,3.773,3.773,0,0,0-3.258,1.594,3.031,3.031,0,0,0-.668,1.512,16.79,16.79,0,0,0-.2,3.117A16.725,16.725,0,0,0-33.117-3a3.078,3.078,0,0,0,.668,1.559A4.1,4.1,0,0,0-31.078-.316a4.03,4.03,0,0,0,1.887.457A4.142,4.142,0,0,0-26.039-1.277Zm-2.4-8.59a2.422,2.422,0,0,1,1.371.34,1.723,1.723,0,0,1,.691.891,4.483,4.483,0,0,1,.316,1.2q.023.645.023,1.348,0,.645-.023,1.313a4.51,4.51,0,0,1-.316,1.23,1.723,1.723,0,0,1-.691.891,2.36,2.36,0,0,1-1.371.352,2.254,2.254,0,0,1-1.324-.328A2.025,2.025,0,0,1-30.5-3.5,4.526,4.526,0,0,1-30.8-4.746a12.645,12.645,0,0,1-.07-1.348,14.011,14.011,0,0,1,.07-1.418,4.466,4.466,0,0,1,.293-1.2,1.86,1.86,0,0,1,.738-.867A2.465,2.465,0,0,1-28.441-9.867Zm17.016,4.711V-7.172a4.988,4.988,0,0,0-1.488-3.773,5.061,5.061,0,0,0-3.527-1.371A5.227,5.227,0,0,0-18.2-12a4.368,4.368,0,0,0-1.629,1.031A5.223,5.223,0,0,0-21-9.047a8.474,8.474,0,0,0-.457,3A7.486,7.486,0,0,0-20.93-3a4.828,4.828,0,0,0,1.254,1.9,4.314,4.314,0,0,0,.855.551,4.565,4.565,0,0,0,.891.41,6.34,6.34,0,0,0,1.875.281,5.737,5.737,0,0,0,4.383-1.969l-1.77-1.512A3.651,3.651,0,0,1-16.1-2.156a2.812,2.812,0,0,1-2.062-.773,2.846,2.846,0,0,1-.844-2.227Zm-7.582-2.016a3.245,3.245,0,0,1,.762-2.145,2.466,2.466,0,0,1,1.8-.691,2.466,2.466,0,0,1,1.8.691,3.091,3.091,0,0,1,.762,2.145ZM-8.859,0H-6.41V-7.324a2.384,2.384,0,0,1,.773-1.934,2.3,2.3,0,0,1,1.605-.609,2.565,2.565,0,0,1,1.605.609l1.781-2.121A3.956,3.956,0,0,0-3.2-12.316a3.927,3.927,0,0,0-3.164,1.441H-6.41v-1.289H-8.859ZM.621,0H3.07V-7.242a2.557,2.557,0,0,1,.7-1.945A2.31,2.31,0,0,1,5.5-9.867a2.349,2.349,0,0,1,1.734.68A2.635,2.635,0,0,1,7.9-7.242V0h2.449V-7.242a2.582,2.582,0,0,1,.691-1.945,2.349,2.349,0,0,1,1.734-.68,2.31,2.31,0,0,1,1.723.68,2.635,2.635,0,0,1,.668,1.945V0h2.449V-8.086a4.093,4.093,0,0,0-1.289-3.164,4.172,4.172,0,0,0-2.766-1.066,4.792,4.792,0,0,0-3.832,1.594,6.09,6.09,0,0,0-1.395-1.16,4.54,4.54,0,0,0-2.039-.434,3.94,3.94,0,0,0-3.176,1.441H3.07v-1.289H.621Zm26.7,0h2.449V-8.309a3.54,3.54,0,0,0-1.395-3.141,6.528,6.528,0,0,0-3.668-.867,4.741,4.741,0,0,0-4.113,1.781L22.512-9.07a1.76,1.76,0,0,1,.867-.75,4.442,4.442,0,0,1,1.441-.187q2.52-.047,2.5,1.559v1.277H23.93a4.02,4.02,0,0,0-2.953,1.055,3.447,3.447,0,0,0-1.008,2.543,3.37,3.37,0,0,0,1.16,2.637A4.44,4.44,0,0,0,24.27.141a5.016,5.016,0,0,0,1.945-.3,2.034,2.034,0,0,0,1.055-.914h.047Zm0-4.277q0,1.371-.574,1.758a4.285,4.285,0,0,1-2.168.363,2.564,2.564,0,0,1-1.746-.48,1.3,1.3,0,0,1-.551-1.055q-.023-1.418,2.109-1.465h2.93Zm12.891,3V0h2.449V-17.086H40.207v6.211a7.024,7.024,0,0,0-1.418-1.055,3.919,3.919,0,0,0-1.734-.387A3.773,3.773,0,0,0,33.8-10.723a3.031,3.031,0,0,0-.668,1.512,16.79,16.79,0,0,0-.2,3.117A16.725,16.725,0,0,0,33.129-3,3.078,3.078,0,0,0,33.8-1.441,4.1,4.1,0,0,0,35.168-.316a4.03,4.03,0,0,0,1.887.457A4.142,4.142,0,0,0,40.207-1.277Zm-2.4-8.59a2.422,2.422,0,0,1,1.371.34,1.723,1.723,0,0,1,.691.891,4.483,4.483,0,0,1,.316,1.2q.023.645.023,1.348,0,.645-.023,1.313a4.51,4.51,0,0,1-.316,1.23,1.723,1.723,0,0,1-.691.891,2.36,2.36,0,0,1-1.371.352,2.254,2.254,0,0,1-1.324-.328,2.025,2.025,0,0,1-.738-.867,4.526,4.526,0,0,1-.293-1.242,12.645,12.645,0,0,1-.07-1.348,14.011,14.011,0,0,1,.07-1.418,4.466,4.466,0,0,1,.293-1.2,1.86,1.86,0,0,1,.738-.867A2.465,2.465,0,0,1,37.8-9.867ZM54.82-5.156V-7.172a4.988,4.988,0,0,0-1.488-3.773A5.061,5.061,0,0,0,49.8-12.316,5.227,5.227,0,0,0,48.047-12a4.368,4.368,0,0,0-1.629,1.031,5.223,5.223,0,0,0-1.172,1.922,8.474,8.474,0,0,0-.457,3A7.486,7.486,0,0,0,45.316-3,4.828,4.828,0,0,0,46.57-1.1a4.314,4.314,0,0,0,.855.551,4.565,4.565,0,0,0,.891.41,6.34,6.34,0,0,0,1.875.281,5.737,5.737,0,0,0,4.383-1.969L52.8-3.34a3.651,3.651,0,0,1-2.66,1.184,2.812,2.812,0,0,1-2.062-.773,2.846,2.846,0,0,1-.844-2.227ZM47.238-7.172A3.245,3.245,0,0,1,48-9.316a2.466,2.466,0,0,1,1.8-.691,2.466,2.466,0,0,1,1.8.691,3.091,3.091,0,0,1,.762,2.145Z" transform="translate(72.718 17.086)" fill="#06072b"/>
    <path id="パス_22" data-name="パス 22" d="M348.906,619.823l2.231,2.621-2.231,1.791" transform="translate(-348.906 -611.732)" fill="none" stroke="#785470" stroke-width="1"/>
    <path id="パス_23" data-name="パス 23" d="M351.855,618.712l3.24,3.662-3.742,3.827" transform="translate(-349.623 -611.407)" fill="none" stroke="#fd5c48" stroke-width="1"/>
    <path id="パス_24" data-name="パス 24" d="M355.962,616.156l2.188,1.712,1.461-1.712" transform="translate(-350.975 -610.657)" fill="none" stroke="#785470" stroke-width="1"/>
    <path id="パス_25" data-name="パス 25" d="M365.012,622.319l-1.416,1.764,2.336,1.557" transform="translate(-353.214 -612.464)" fill="none" stroke="#785470" stroke-width="1"/>
    <path id="パス_26" data-name="パス 26" d="M356.647,632.93l2.024-2.775,2.471,2.775" transform="translate(-351.176 -614.763)" fill="none" stroke="#785470" stroke-width="1"/>
    <path id="パス_27" data-name="パス 27" d="M354.473,629.816l3.318-3.542,3.713,3.542" transform="translate(-350.538 -613.625)" fill="none" stroke="#fd5c48" stroke-width="1"/>
    <path id="パス_28" data-name="パス 28" d="M354.473,617.367l3.3,3.6,3.143-2.805" transform="translate(-350.538 -611.012)" fill="none" stroke="#fd5c48" stroke-width="1"/>
    <path id="パス_29" data-name="パス 29" d="M363.423,620.553l-2.706,3.022,3.561,3.056" transform="translate(-352.457 -611.947)" fill="none" stroke="#fd5c48" stroke-width="1"/>
  </g>
</svg>
